<svg height="380" width="360" viewBox="0 0 380 360" 
  xmlns="http://www.w3.org/2000/svg">
  <g fill-rule="evenodd">
    <path
      d="m202.033 50.686c-10.249 1.606-21.901 4.564-27.067 6.871-.837.374-2.635 1.126-3.994 1.672-8.199 3.287-16.185 8.113-25.591 15.464-6.751 5.275-16.283 14.758-16.283 16.199 0 .106.486-.271 1.08-.838.594-.566 2.109-1.872 3.367-2.902s3.545-3.081 5.083-4.558c2.818-2.708 7.195-6.114 12.579-9.789 1.607-1.097 3.988-2.72 5.289-3.607 6.469-4.407 22.88-11.21 31.052-12.872 1.747-.355 4.549-.949 6.226-1.32 10.273-2.27 25.304 1.41 32.109 7.86 8.519 8.074 17.385 31.654 19.6 52.128.151 1.397.385 3.518.521 4.712.32 2.827.769 12.748.643 14.22-.054.629-.169 2.974-.256 5.21s-.266 5.324-.397 6.861c-.132 1.538-.365 4.854-.519 7.37s-.435 5.318-.624 6.226c-.189.909-.479 2.91-.644 4.448-1.991 18.555-8.454 36.312-17.669 48.538-7.849 10.415-11.879 14.96-17.961 20.259-1.922 1.674-3.494 3.127-3.494 3.228 0 .896 13.301 8.788 16.995 10.083 1.485.52 4.186 1.547 6.003 2.281 3.66 1.479 6.109 2.292 9.911 3.29 1.398.367 3.8 1.168 5.337 1.781 12.747 5.078 32.951 5.877 43.329 1.713 10.891-4.37 25.179-17.577 27.703-25.608.176-.559.579-1.474.896-2.033 1.341-2.366 3.389-12.875 3.937-20.203.13-1.747.363-4.092.516-5.21.375-2.73-.112-14.572-.78-18.979-1.507-9.935-4.372-19.669-8.252-28.035-.662-1.426-1.705-3.782-3.826-8.64-.793-1.817-2.249-4.782-3.234-6.587-.985-1.806-2.677-5.123-3.76-7.37-4.95-10.275-16.143-27.491-21.824-33.566-.653-.698-1.865-2.071-2.693-3.049-4.915-5.808-20.037-20.214-25.185-23.993-1.13-.829-2.727-2.126-3.551-2.882-5.315-4.878-26.165-15.992-32.052-17.084-1.085-.202-2.831-.603-3.88-.893-2.428-.67-5.879-.828-8.64-.396m-145.168 165.832c-.299 1.016-.242 3.708.072 3.394.152-.152.234-1.071.191-2.148-.053-1.306-.133-1.687-.263-1.246m-.143 7.167c-.445.445-.394 3.546.068 4.157.336.445.374.25.381-1.984.005-1.363-.026-2.478-.068-2.478s-.214.137-.381.305m.024 5.325c-.393.478-.066 5.345.37 5.489.24.079.313-.502.299-2.394-.019-2.778-.209-3.654-.669-3.095m.432 8.211c.171 1.554.382 1.953.626 1.184.18-.567-.276-2.573-.584-2.573-.107 0-.126.625-.042 1.389m1.146 6.232c-.217.352.374 3.202.776 3.747.758 1.026.934-.026.344-2.058-.542-1.865-.785-2.23-1.12-1.689m16.441 32.328c-.77.771.278 2.151 1.109 1.461.491-.408.459-.839-.1-1.345-.555-.502-.616-.509-1.009-.116m10.114 9.833c0 .145.239.392.531.548.455.243.518.218.442-.179-.094-.488-.973-.821-.973-.369m5.427 2.438c.09.234.164.474.164.533 0 .058.172.106.381.106.545 0 .471-.33-.164-.726-.482-.302-.526-.292-.381.087m16.286 9.139c.272.217.666.395.877.395.537 0 .05-.412-.735-.62-.61-.162-.616-.154-.142.225"
      fill="#94ea05" />
    <path
      d="m185.642 69.394c-7.907.771-23.945 4.893-29.098 7.478-.909.456-2.537 1.196-3.619 1.645-1.081.449-2.911 1.409-4.066 2.133-1.154.724-2.785 1.702-3.624 2.174-3.043 1.711-17.081 11.336-19.187 13.155-1.188 1.026-3.361 2.859-4.828 4.073-6.393 5.287-9.366 8.756-16.317 19.036-5.635 8.333-15.211 25.536-20.215 36.312-3.78 8.143-11.453 30.073-13.38 38.247-3.432 14.552-3.8 29.654-1.054 43.176 2.197 10.815 4.774 15.34 16.476 28.928 5.278 6.128 17.161 15.889 24.729 20.314 7.508 4.388 21.79 10.25 24.976 10.25.492 0-.628-.535-2.128-1.017-19.53-6.272-38.719-20.885-51.615-39.305-5.366-7.664-7.811-19.843-5.707-28.426 5.798-23.659 26.167-45.99 58.339-63.964 5.19-2.9 20.098-7.94 27.954-9.451 1.118-.216 4.098-.791 6.621-1.28 11.338-2.195 15.608-2.558 27.658-2.351 9.047.155 10.731.319 18.483 1.797 2.57.489 5.586 1.019 6.705 1.177 1.118.158 3.576.693 5.463 1.189 5.561 1.461 4.829 1.894 5.449-3.223 1.265-10.434 1.378-15.687.661-30.877-.627-13.301-3.849-23.328-11.234-34.959-2.238-3.526-8.538-8.029-16.604-11.867-9.609-4.573-12.495-5.177-20.838-4.364"
      fill="#04e3fb" />
    <path
      d="m141.791 60.165-.876.953.953-.876c.887-.815 1.07-1.03.876-1.03-.043 0-.472.429-.953.953m-3.423 3.177-2.282 2.351 2.351-2.282c2.183-2.12 2.466-2.42 2.282-2.42-.038 0-1.096 1.058-2.351 2.351m-11.571 10.8-.876.953.953-.875c.524-.482.953-.911.953-.953 0-.195-.215-.012-1.03.875m-7.365 7.624-1.389 1.461 1.461-1.389c1.358-1.29 1.578-1.533 1.389-1.533-.039 0-.697.658-1.461 1.461m158.205 1.08c.688.699 1.308 1.271 1.378 1.271s-.436-.572-1.124-1.271c-.689-.699-1.309-1.27-1.379-1.27s.436.571 1.125 1.27m15.935 19.187c.886 1.118 2.171 2.834 2.856 3.812 1.391 1.986 1.868 2.56 1.446 1.737-.417-.811-3.884-5.39-4.972-6.565-.518-.56-.216-.102.67 1.016m5.411 8.005c.493.979.954 1.779 1.023 1.779.07 0-.276-.8-.768-1.779-.493-.978-.953-1.779-1.023-1.779s.276.801.768 1.779m-52.399 21.982c.002.839.049 1.151.106.695.056-.457.055-1.143-.003-1.525s-.104-.008-.103.83m74.405 17.789c0 .14.275.769.612 1.398s.612 1.029.612.89c0-.14-.275-.769-.612-1.398s-.612-1.029-.612-.89m-170.417 20.821c-2.767.896-10.919 4.378-13.596 5.808-10.281 5.489-23.911 18.251-30.039 28.126-1.001 1.613-2.773 4.341-3.938 6.062-4.089 6.04-5.374 9.305-6.704 17.033-1.157 6.721-1.19 6.318 1.259 15.416 2.198 8.168 6.009 17.979 8.838 22.755 3.151 5.319 5.532 8.279 11.246 13.978 5.28 5.266 5.908 5.774 12.465 10.084 5.814 3.821 17.366 9.065 23.391 10.619 3.205.826 9.702 1.813 14.232 2.163 1.886.145 4.86.432 6.607.637s5.407.489 8.132.632c2.726.143 7.186.381 9.911.528 5.817.314 17.775.11 24.905-.424 5.034-.378 8.303-.875 17.408-2.648 2.795-.545 6.162-1.175 7.481-1.401 2.668-.458 4.62-.896 11.324-2.544 2.516-.618 6.009-1.462 7.761-1.875 10.926-2.572 21.456-7.314 38.063-17.14 16.955-10.031 25.692-27.144 26.982-52.848.153-3.047.215-6.135.138-6.862-.076-.726-.248-2.922-.382-4.879-.468-6.881-.805-9.906-1.526-13.702-1.088-5.734-1.531-6.514-1.021-1.8 4.433 40.968-6.778 67.516-32.069 75.939-6.937 2.31-17.25 2.106-29.088-.577-1.238-.281-4.48-.966-7.206-1.522-8.649-1.767-11.91-2.964-23.507-8.631-11.205-5.475-27.83-15.917-33.345-20.942-.809-.737-1.985-1.733-2.614-2.212-10.459-7.976-23.436-22.528-29.344-32.906-2.246-3.946-2.032-3.51-4.601-9.403-1.219-2.795-2.888-6.619-3.709-8.497-2.211-5.052-4.359-12.354-4.902-16.662-.296-2.345-.414-2.922-.594-2.902-.099.012-.98.28-1.958.597m168.948 17.807c.001.839.049 1.151.105.694.057-.456.055-1.143-.003-1.524-.057-.382-.104-.009-.102.83m.258 6.099c.002.979.047 1.348.103.82.055-.527.054-1.327-.003-1.778-.056-.452-.101-.02-.1.958m17.511 20.712c0 .489.052.689.116.445.064-.245.064-.645 0-.89s-.116-.044-.116.445m-.495 19.949c.002.699.052.955.11.568.058-.386.057-.958-.003-1.27-.061-.313-.108.003-.107.702m-.254 3.304c.002.698.052.954.11.568s.057-.958-.004-1.271c-.06-.312-.108.004-.106.703m-.428 3.075c-.095.929-.122 1.742-.058 1.805.063.063.196-.642.295-1.568s.125-1.739.058-1.806-.2.639-.295 1.569m-31.293 1.181-1.261 1.334 1.334-1.261c.734-.693 1.334-1.294 1.334-1.334 0-.189-.235.022-1.407 1.261m30.523 2.877c-.093.373-.121.727-.061.786.06.06.186-.195.279-.568.093-.372.121-.726.061-.786s-.185.196-.279.568m-1.138 3.944c-.172.574-.266 1.09-.209 1.147s.245-.365.416-.939c.172-.573.266-1.089.209-1.147-.057-.057-.245.366-.416.939m-16.556 28.376-.875.953.953-.876c.524-.481.953-.91.953-.953 0-.194-.216-.011-1.031.876m-5.212 4.956-.746.826.826-.747c.77-.695.943-.905.746-.905-.043 0-.415.372-.826.826m-47.887 23.697c-.35.2-.521.364-.381.364.139 0 .54-.164.889-.364.35-.199.521-.363.381-.363-.139 0-.54.164-.889.363m-2.796.89c-.51.163-.535.205-.127.211.28.004.737-.091 1.017-.211.648-.278-.021-.278-.89 0m-6.734 1.779c-.648.278.021.278.89 0 .51-.164.535-.205.127-.211-.28-.004-.737.091-1.017.211m-5.146.937c.245.064.645.064.889 0 .245-.064.045-.116-.444-.116-.49 0-.69.052-.445.116m-90.978 2.796c.244.064.644.064.889 0s.044-.116-.445-.116-.689.052-.444.116m8.008.767c.316.06.773.058 1.016-.005.243-.064-.016-.114-.575-.111s-.758.055-.441.116m22.871 1.524c.316.061.774.059 1.017-.005.243-.063-.016-.113-.575-.11s-.758.055-.442.115m10.417.262c.733.052 1.934.052 2.668 0 .734-.051.133-.093-1.334-.093-1.468 0-2.068.042-1.334.093"
      fill="#fc4c5c" />
    <path
      d="m191.614 35.727c-.35.059-1.493.232-2.542.385-6.228.908-12.043 3.047-21.855 8.041-7.678 3.908-13.442 7.4-18.551 11.241-1.048.788-2.363 1.71-2.921 2.049-1.244.756-3.775 2.92-6.984 5.973-1.331 1.267-3.278 3.002-4.326 3.856-2.153 1.754-5.84 5.308-8.644 8.332-1.037 1.118-3.438 3.634-5.335 5.59-1.898 1.957-4.469 4.759-5.712 6.227-1.244 1.467-3.087 3.541-4.094 4.608-3.401 3.602-5.619 6.605-14.3 19.364-3.226 4.741-5.57 8.418-7.436 11.665-5.448 9.478-8.402 14.99-13.59 25.354-2.841 5.676-4.35 9.193-6.868 16.01-.49 1.328-1.285 3.386-1.765 4.574-.807 1.997-1.65 4.752-4.556 14.884-.604 2.105-1.277 4.258-1.497 4.783-.219.524-.575 2.404-.79 4.176-.216 1.772-.728 5.166-1.138 7.542-1.583 9.169-2.041 27.433-.894 35.705.425 3.066 1.551 8.447 2.313 11.055.49 1.677 1.04 3.701 1.223 4.498.334 1.452 3.243 8.383 3.819 9.098.549.682 1.411 2.307 1.411 2.662 0 .19.086.383.191.43.303.135 2.096 2.886 2.096 3.216 0 .165.121.299.269.299s.21.096.137.214c-.072.117.35.714.938 1.326.589.612 1.91 2.26 2.935 3.662 2.963 4.051 7.321 7.896 16.504 14.561 3.207 2.328 7.782 5.142 10.475 6.444 1.747.845 4.034 1.971 5.083 2.502 1.048.531 2.363 1.111 2.922 1.287.559.177 2.503.949 4.32 1.717 1.817.767 4.505 1.827 5.972 2.355 1.468.527 4.041 1.499 5.718 2.158 1.678.66 3.793 1.401 4.702 1.648.908.247 2.166.629 2.795.849s2.402.76 3.939 1.201c1.538.44 3.653 1.069 4.702 1.398 7.262 2.278 17.594 4.147 25.81 4.669 2.146.136 4.632.365 5.524.507.892.143 3.842.371 6.554.508 2.713.137 6.362.381 8.109.543 1.775.165 8.165.308 14.485.324 15.715.04 19.315-.314 39.772-3.916 3.913-.688 8.259-1.377 9.657-1.529 3.084-.336 4.207-.574 6.547-1.392.991-.346 2.782-.812 3.98-1.036 1.199-.223 2.579-.58 3.069-.792.489-.213 3.176-1.216 5.972-2.23 2.795-1.013 6.626-2.494 8.513-3.291s4.746-1.963 6.353-2.59c10.961-4.279 24.64-12.608 31.228-19.015 11.739-11.417 18.677-25.451 20.356-41.179.283-2.656.636-5.878.784-7.16.388-3.368.395-16.177.011-19.397-1.086-9.085-1.913-13.492-3.957-21.093-.658-2.446-1.351-5.133-1.541-5.972-.189-.838-.569-2.154-.844-2.922-.274-.769-.749-2.484-1.055-3.812-.305-1.328-.881-3.444-1.28-4.702-.398-1.258-1.251-4.117-1.895-6.353-3.337-11.585-5.258-16.518-8.556-21.982-3.62-5.997-6.122-10.54-9.238-16.773-3.209-6.419-5.642-10.884-8.197-15.039-.544-.883-1.574-2.605-2.289-3.826-1.778-3.033-10.75-15.207-13.161-17.856-.763-.839-2.199-2.497-3.192-3.685-5.04-6.033-23.373-23.485-27.995-26.65-.668-.457-2.27-1.767-3.559-2.911-2.135-1.894-4.515-3.501-10.22-6.904-15.506-9.249-22.689-12.277-33.418-14.088-1.747-.296-3.805-.719-4.574-.941-1.35-.39-8.862-.717-10.419-.454m19.148 15.095c1.097.293 2.927.708 4.066.922 5.752 1.082 26.433 12.255 32.017 17.299 1.002.904 2.709 2.269 3.795 3.032s2.745 2.098 3.685 2.967c.941.869 2.454 2.209 3.362 2.977 2.533 2.141 16.414 16.057 18.961 19.008 8.85 10.255 16.844 22.421 23.83 36.264 1.622 3.215 3.596 7.095 4.388 8.623 1.46 2.818 4.351 9.206 5.146 11.367.239.652.554 1.338.699 1.525.836 1.075 4.173 10.017 5.572 14.929 3.169 11.122 4.593 24.149 3.593 32.855-.229 2-.483 4.494-.563 5.542-.531 6.961-2.717 17.839-4.084 20.331-.192.349-.63 1.351-.974 2.226-3.073 7.816-16.295 20.008-26.358 24.307-7.878 3.365-17.342 4.026-31.226 2.182-5.527-.734-19.968-5.002-28.208-8.336-1.748-.707-4.62-1.805-6.384-2.44-4.119-1.484-15.658-8.27-17.179-10.103-.257-.309.418-1.004 4.047-4.167 6.107-5.323 7.98-7.453 17.078-19.426 9.75-12.83 15.951-29.615 17.933-48.538.168-1.608.456-3.666.64-4.575.37-1.834.917-9.119 1.671-22.236.679-11.804-1.45-30.604-4.745-41.914-4.924-16.9-11.622-29.654-17.897-34.076-6.446-4.542-12.649-6.409-22.102-6.651l-4.702-.12-6.099 1.299c-11.937 2.543-26.82 8.495-34.689 13.872-1.607 1.098-3.951 2.695-5.209 3.548-6.138 4.162-8.62 6.106-12.355 9.679-1.484 1.419-4.078 3.688-5.765 5.042s-3.116 2.599-3.176 2.766c-.059.167-.189.229-.288.137-.533-.492 1.285-2.72 6.05-7.413 11.203-11.036 23.798-19.737 35.17-24.297 1.36-.545 3.348-1.393 4.417-1.884 4.623-2.122 10.501-3.728 21.563-5.89 7.814-1.528 10.524-1.648 14.32-.633m-14.06 18.684c8.746 2.217 23.599 10.968 26.913 15.856 4.992 7.365 7.755 13.965 9.906 23.668 1.178 5.312 2.412 24.381 1.941 29.979-.881 10.445-1.557 16.445-1.921 17.033-.133.215-.719.143-2.185-.269-3.311-.929-6.712-1.706-8.866-2.025-1.118-.166-4.377-.74-7.242-1.276-7.269-1.36-8.979-1.522-17.916-1.694-12.561-.243-18.986.469-35.197 3.897-8.355 1.767-21.916 6.515-27.503 9.629-30.822 17.181-51.249 39.514-57.405 62.761-2.186 8.255.112 20.767 5.165 28.127 12.777 18.607 30.919 32.655 51.534 39.902 2.344.824 3.282 1.4 1.779 1.093-1.865-.382-9.364-2.733-11.309-3.545-3.445-1.439-8.563-3.838-10.165-4.766-.838-.485-2.668-1.546-4.066-2.356-4.441-2.576-10.714-7.41-16.363-12.609-1.732-1.594-3.477-3.165-3.878-3.491-.801-.649-5.487-5.996-8.807-10.047-2.954-3.604-6.874-9.529-8.017-12.119-6.524-14.781-6.6-39.821-.182-60.342 4.682-14.973 9.248-26.976 13.485-35.454 8.565-17.139 14.319-26.995 22.401-38.37.943-1.328 2.125-2.993 2.627-3.699 1.135-1.6 6.612-7.051 9.662-9.617 1.258-1.058 3.087-2.626 4.066-3.483.978-.858 3.608-2.771 5.845-4.252 2.236-1.481 5.896-3.949 8.132-5.486 2.236-1.536 4.809-3.211 5.718-3.722.908-.511 2.734-1.59 4.056-2.398 1.323-.809 3.153-1.783 4.066-2.166.914-.383 2.687-1.173 3.939-1.756 12.493-5.808 31.383-9.133 39.787-7.003m7.237 93.92c7.306.545 18.079 3.194 24.248 5.962l1.541.692-.137 1.046c-.076.576-.245 1.733-.376 2.572-.131.838-.417 2.668-.636 4.066-1.62 10.355-8.301 25.384-14.18 31.897-9.183 10.174-10.648 11.685-14.226 14.68-3.004 2.515-2.534 2.496-5.354.214-11.288-9.138-19.495-19.511-23.942-30.263-3.528-8.532-5.735-16.933-6.005-22.865l-.069-1.508 2.16-.857c5.508-2.184 12.852-4.403 17.027-5.144 2.306-.409 4.479-.799 4.828-.866.904-.173 11.194.081 15.121.374m-51.099 6.302c.076.123.306 1.41.51 2.859.941 6.668 2.946 13.002 6.625 20.933.518 1.118 1.738 3.862 2.711 6.099 3.57 8.211 8.48 15.995 14.216 22.538 3.334 3.803 16.292 16.227 18.905 18.127.559.406 1.538 1.214 2.176 1.795 7.739 7.043 29.555 19.982 43.603 25.861 4.739 1.984 13.456 4.476 15.684 4.485.26.001 1.861.341 3.558.754 9.712 2.369 21.736 3.228 27.101 1.936 15.077-3.629 25.649-13.579 32.003-30.121 4.229-11.009 5.438-31.699 2.949-50.458l-.135-1.016.497 1.079c.982 2.133 2.223 9.44 2.816 16.583 2.255 27.13-3.97 48.309-17.88 60.83-5.279 4.752-7.008 5.945-13.986 9.658-1.517.807-3.461 1.897-4.32 2.422-7.993 4.886-21.371 10.24-30.221 12.096-1.709.358-4.595 1.04-6.412 1.514-4 1.046-9.229 2.188-13.85 3.027-1.887.342-6.518 1.208-10.292 1.925-7.458 1.415-9.931 1.656-20.839 2.032-5.846.201-20.118-.03-22.059-.358-.447-.075-3.066-.247-5.821-.381s-5.729-.355-6.608-.491-3.314-.377-5.41-.535c-13.578-1.026-27.109-5.368-37.025-11.882-12.057-7.92-20.002-15.881-25.582-25.633-3.918-6.846-9.486-22.896-10.482-30.209-.425-3.124 1.269-13.018 2.894-16.9 1.539-3.676 1.783-4.113 5.052-9.068 1.584-2.402 3.545-5.407 4.356-6.677 5.337-8.353 18.829-20.887 27.896-25.914 6.091-3.376 16.897-7.675 17.37-6.91"
      fill="#040404" />
    <path
      d="m194.483 35.513c.95.049 2.436.048 3.304-.001.868-.05.091-.09-1.726-.089-1.817 0-2.527.041-1.578.09m-3.692.245c.316.061.773.058 1.016-.005.243-.064-.015-.114-.574-.111-.56.003-.758.055-.442.116m22.043 2.632c.978.264 1.889.445 2.025.404.285-.089-2.983-.94-3.475-.906-.181.013.471.239 1.45.502m-36.722 1.381c-.35.2-.521.363-.381.363.139 0 .54-.163.889-.363.35-.199.521-.363.381-.363s-.54.164-.889.363m45.235 1.525c.349.2.75.363.889.363.14 0-.031-.163-.381-.363-.349-.2-.75-.363-.889-.363-.14 0 .031.163.381.363m-51.08 1.144c-.769.406-1.308.743-1.199.75.27.016 2.724-1.236 2.724-1.39 0-.17.035-.185-1.525.64m53.367-.127c.349.199.75.363.89.363.139 0-.032-.164-.382-.363-.349-.2-.749-.364-.889-.364s.032.164.381.364m-58.763 2.756c-2.266 1.256-2.957 1.801-1.084.857 1.911-.965 3.59-1.956 3.303-1.951-.14.003-1.138.495-2.219 1.094m65.625.534c0 .07.343.305.762.522.419.216.762.337.762.267s-.343-.305-.762-.522c-.419-.216-.762-.337-.762-.267m-71.226 2.561c-1.08.632-1.964 1.213-1.964 1.291s.372-.081.826-.354c.454-.272 1.369-.807 2.033-1.188 1.032-.593 1.42-.899 1.138-.899-.037 0-.952.517-2.033 1.15m74.402-.71c.14.132.94.606 1.779 1.054.839.449 1.296.63 1.017.403-.575-.466-3.189-1.829-2.796-1.457m-28.78 2.795c.524.054 1.382.054 1.906 0 .524-.055.095-.1-.953-.1s-1.477.045-.953.1m33.97.248c.9.666 3.298 1.968 2.625 1.425-.314-.254-1.172-.78-1.906-1.17-.734-.391-1.057-.505-.719-.255m-85.687 1.476c-1.362.911-2.476 1.714-2.476 1.786 0 .126 4.459-2.78 4.943-3.221.601-.549-.179-.095-2.467 1.435m59.659-.391c.485.215 2.105.36 1.884.169-.058-.051-.62-.16-1.249-.243-.764-.101-.975-.077-.635.074m4.828 1.171c2.233.943 2.489.981.762.112-.838-.422-1.696-.764-1.906-.762-.209.003.305.296 1.144.65m26.794 1.074c.34.276.969.696 1.398.932l.779.43-.619-.503c-.34-.276-.969-.695-1.397-.932l-.78-.429zm-24.38-.143c.206.203 2.542 1.19 2.542 1.073 0-.058-.315-.266-.699-.462-.761-.387-2.048-.814-1.843-.611m-71.283 1.364c-.839.637-2.268 1.644-3.177 2.237-1.794 1.171-3.45 2.593-6.988 6-1.258 1.211-3.145 2.893-4.193 3.739-1.049.845-2.993 2.589-4.321 3.876-2.348 2.275-2.331 2.264.645-.418 1.682-1.516 3.912-3.47 4.955-4.343 1.044-.872 3.327-2.92 5.074-4.551 1.747-1.63 3.827-3.388 4.623-3.906 2.52-1.64 5.406-3.846 4.97-3.8-.035.004-.749.528-1.588 1.166m35.07-.918c-.648.278.02.278.889 0 .511-.164.536-.205.127-.211-.279-.004-.737.09-1.016.211m14.295.442c.873.05 2.303.05 3.176 0 .874-.05.159-.09-1.588-.09s-2.462.04-1.588.09m-17.218.447c-.489.188-.718.343-.508.343s.781-.155 1.271-.343c.489-.188.718-.342.508-.342s-.782.154-1.271.342m23.952-.206c.245.064.645.064.889 0 .245-.064.045-.116-.444-.116s-.69.052-.445.116m45.172 3.092c1.048.991 2.592 2.28 3.43 2.865 1.805 1.259 1.589.927-.3-.462-.724-.533-2.154-1.697-3.177-2.587l-1.859-1.617zm-23.889-1.363c0 .172 2.065 1.199 2.18 1.084.053-.053-.416-.346-1.042-.65s-1.138-.499-1.138-.434m-45.616 1.772c-.981.449-.525.456.635.009.49-.189.718-.346.509-.351-.21-.004-.725.15-1.144.342m50.953 1.015c0 .07.458.36 1.017.646.559.285 1.016.461 1.016.391s-.457-.36-1.016-.646c-.559-.285-1.017-.461-1.017-.391m-7.508 2.223c.414.32 1.329 1.094 2.033 1.719 1.187 1.052 1.216 1.064.392.166-.489-.533-1.404-1.307-2.033-1.719s-.805-.487-.392-.166m32.032 1.089c2.578 2.37 4.833 4.353 5.316 4.676.813.545-2.819-2.773-4.681-4.276-.909-.733-1.195-.913-.635-.4m-88.565.764c-.349.2-.521.364-.381.364s.54-.164.89-.364c.349-.199.521-.363.381-.363s-.54.164-.89.363m60.718 2.478c.604.804 1.148 1.461 1.209 1.461.174 0-1.498-2.271-1.926-2.616-.208-.168.114.351.717 1.155m-66.626.334c-.944.484-1.715.937-1.715 1.007 0 .114 3.532-1.578 3.79-1.815.348-.32-.59.046-2.075.808m68.93 2.89c.566.9 1.103 1.701 1.191 1.779.353.312-1.032-2.002-1.607-2.685-.338-.401-.15.007.416.906m15.632-.492c.545.559 1.049 1.017 1.119 1.017s-.319-.458-.865-1.017-1.05-1.017-1.12-1.017.32.458.866 1.017m18.043 1.181c1.118 1.117 5.073 4.997 8.789 8.621 6.625 6.462 6.603 6.437-1.144-1.288-4.345-4.333-8.3-8.213-8.789-8.622s.026.171 1.144 1.289m-77.002-.933c-6.214.331-17.191 2.728-24.711 5.397-3.84 1.362-3.471 1.543.49.239 12.673-4.171 26.414-6.266 32.65-4.978 8.669 1.791 24.166 10.869 27.489 16.104 7.385 11.631 10.607 21.658 11.234 34.959.717 15.19.604 20.443-.661 30.877-.62 5.117.112 4.684-5.449 3.223-1.887-.496-4.345-1.031-5.463-1.189-1.119-.158-4.135-.688-6.705-1.177-7.752-1.478-9.436-1.642-18.483-1.797-12.05-.207-16.32.156-27.658 2.351-2.523.489-5.503 1.064-6.621 1.28-7.856 1.511-22.764 6.551-27.954 9.451-21.558 12.044-37.247 25.353-46.799 39.701-1.51 2.269-1.675 2.541-1.538 2.541.058 0 .655-.829 1.327-1.842 9.554-14.398 25.596-28.148 46.318-39.699 5.587-3.114 19.148-7.862 27.503-9.629 16.211-3.428 22.636-4.14 35.197-3.897 8.937.172 10.647.334 17.916 1.694 2.865.536 6.124 1.11 7.242 1.276 2.154.319 5.555 1.096 8.866 2.025 1.466.412 2.052.484 2.185.269.364-.588 1.04-6.588 1.921-17.033.471-5.598-.763-24.667-1.941-29.979-2.151-9.703-4.914-16.303-9.906-23.668-1.9-2.803-9.258-8.152-15.229-11.071-10.362-5.066-13.403-5.844-21.22-5.428m45.16 3.431c.304.626.596 1.095.649 1.041.115-.115-.911-2.179-1.084-2.179-.065 0 .131.512.435 1.138m-109.77 6.423c-2.792 2.9-5.508 5.787-6.036 6.416l-.961 1.144 1.092-1.144c.6-.629 2.643-2.744 4.538-4.701 6.101-6.297 6.754-6.989 6.597-6.989-.085 0-2.439 2.373-5.23 5.274m131.563-3.685c.623.664 1.166 1.207 1.207 1.207.191 0-.011-.228-1.133-1.281l-1.207-1.133zm-98.846 2.223c-.769.407-1.283.739-1.143.739.139 0 .883-.332 1.651-.739.769-.406 1.284-.738 1.144-.738s-.883.332-1.652.738m-15.51 1.97-1.389 1.461 1.461-1.389c1.357-1.29 1.577-1.533 1.389-1.533-.04 0-.697.657-1.461 1.461m117.67-1.382c0 .044.372.416.826.826l.826.747-.746-.826c-.696-.77-.906-.943-.906-.747m-106.035 1.083c-.986.534-.874.719.127.21.958-.488 1.127-.614.805-.6-.129.006-.548.181-.932.39m108.577 1.458c0 .044.371.416.826.826l.825.747-.746-.826c-.696-.77-.905-.943-.905-.747m-121.48 2.399-2.154 2.223 2.223-2.154c1.223-1.185 2.224-2.186 2.224-2.224 0-.185-.292.089-2.293 2.155m9.023-1.553c-1.297.86-1.754 1.313-.741.736.891-.509 2.08-1.393 1.884-1.401-.072-.003-.587.296-1.143.665m120.08 6.572c3.283 3.284 6.026 5.972 6.096 5.972.069 0-2.559-2.688-5.841-5.972-3.283-3.285-6.026-5.972-6.095-5.972-.07 0 2.558 2.687 5.84 5.972m-132.147-4.575c-.617.629-1.065 1.144-.995 1.144s.632-.515 1.249-1.144 1.065-1.143.995-1.143c-.069 0-.632.514-1.249 1.143m7.275.885c-1.066.696-1.938 1.322-1.938 1.392 0 .11 3.745-2.252 4.042-2.549.383-.383-.428.063-2.104 1.157m-11.087 2.927c-.617.629-1.065 1.144-.995 1.144s.632-.515 1.249-1.144c.618-.629 1.065-1.143.996-1.143-.07 0-.633.514-1.25 1.143m149.899.318c.747.874 1.415 1.588 1.484 1.588.18 0-1.852-2.397-2.391-2.821-.249-.195.159.359.907 1.233m-169.979 3.431c-1.308 1.432-1.947 2.204-1.419 1.715 1.062-.984 4.08-4.32 3.908-4.32-.06 0-1.18 1.172-2.489 2.605m172.071-.953c.186.279.765.934 1.286 1.455.522.521 1.647 1.865 2.5 2.986.854 1.122 1.609 2.039 1.679 2.039.253 0-3.004-4.104-4.387-5.53-.779-.802-1.264-1.23-1.078-.95m-150.914 1.023c-.732.493-1.331.952-1.331 1.019 0 .068.629-.295 1.398-.805 1.221-.811 1.58-1.11 1.331-1.11-.037 0-.666.403-1.398.896m-2.538 1.674c-.866.555-1.147.928-.381.507.583-.321 1.496-1.027 1.334-1.032-.07-.002-.499.235-.953.525m-2.875 1.991c-.917.689-2.461 1.98-3.431 2.869-.969.889-2.735 2.426-3.923 3.416-3.622 3.018-9.692 9.452-9.649 10.229.005.08.262-.198.571-.618 2.054-2.781 5.997-6.725 10.351-10.353 1.467-1.222 3.355-2.823 4.198-3.558.842-.735 2.043-1.763 2.668-2.284 1.609-1.342 1.185-1.18-.785.299m147.4.585c1.054 1.122 1.282 1.324 1.282 1.133 0-.041-.543-.584-1.207-1.207l-1.207-1.133zm-167.613.762c-1.113 1.284-1.444 1.716-1.315 1.716.075 0 .558-.515 1.073-1.144.954-1.165 1.144-1.612.242-.572m183.279 2.294c.232.388 1.865 2.643 3.629 5.012 1.764 2.368 3.818 5.388 4.564 6.71 1.899 3.366 2.346 3.825.766.787-1.567-3.014-2.976-5.11-5.991-8.916-1.227-1.549-2.492-3.15-2.811-3.558-.575-.735-.576-.735-.157-.035m-12.108 1.01c1.053 1.122 1.282 1.324 1.282 1.133 0-.041-.544-.584-1.208-1.207l-1.207-1.133zm-174.814 1.588c-.724 1.049-1.262 1.906-1.195 1.906.068 0 .622-.714 1.233-1.588 1.35-1.933 1.532-2.224 1.39-2.224-.06 0-.703.858-1.428 1.906m-3.066 4.448c-.569.838-.978 1.524-.908 1.524s.593-.686 1.162-1.524c.57-.839.979-1.525.909-1.525s-.593.686-1.163 1.525m-3.303 4.701c-.708 1.048-1.229 1.906-1.16 1.906.07 0 .706-.858 1.414-1.906.707-1.048 1.229-1.906 1.159-1.906s-.706.858-1.413 1.906m188.818-.635c.298.419.6.762.67.762s-.117-.343-.416-.762c-.299-.42-.6-.763-.67-.763s.117.343.416.763m-41.11 2.287c0 .489.052.689.116.445.064-.245.064-.645 0-.89-.064-.244-.116-.044-.116.445m-150.13 1.969c-.54.804-1.088 1.605-1.217 1.779-.13.175-.169.318-.087.318.126 0 1.698-2.216 2.299-3.24.523-.893-.138-.133-.995 1.143m150.384-.19c0 .489.052.689.116.445.064-.245.064-.645 0-.89s-.116-.044-.116.445m-136.781.508c-.298.419-.485.762-.416.762.07 0 .372-.343.67-.762.299-.419.486-.762.416-.762s-.371.343-.67.762m192.598-.127c.137.28.436.737.663 1.017l.414.508-.25-.508c-.137-.28-.435-.737-.663-1.017l-.414-.508zm-194.414 2.732c-.591.873-1.771 2.617-2.624 3.875-1.671 2.465-2.911 4.477-2.507 4.066.408-.413 6.458-9.529 6.325-9.529-.066 0-.604.714-1.194 1.588m196.212.318c.457.838.952 1.639 1.099 1.778.147.14-.107-.432-.564-1.27-.457-.839-.952-1.639-1.099-1.779s.107.432.564 1.271m-211.106 1.461c-1.149 1.825-1.648 2.732-1.505 2.732.055 0 .537-.715 1.071-1.589.534-.873 1.135-1.845 1.336-2.16.201-.314.305-.572.231-.572-.073 0-.583.715-1.133 1.589m154.004-.445c.003.559.055.758.116.442s.058-.774-.005-1.017c-.064-.243-.114.016-.111.575m.249 2.414c0 .49.053.69.117.445.063-.245.063-.645 0-.889-.064-.245-.117-.045-.117.444m60.224 2.659c.586 1.183 1.107 2.11 1.158 2.059.113-.112-1.933-4.209-2.102-4.209-.068 0 .357.967.944 2.15m-217.157-.181c-.482.804-1.008 1.747-1.17 2.097l-.293.635.452-.616c.581-.792 2.132-3.577 1.993-3.577-.059 0-.501.657-.982 1.461m157.198.064c0 .629.049.886.11.571.06-.314.06-.829 0-1.143-.061-.315-.11-.057-.11.572m-146.471 4.256c-1.601 2.682-1.559 2.605-1.419 2.605.062 0 .603-.829 1.201-1.842.599-1.014 1.254-2.1 1.456-2.415.203-.314.305-.571.229-.571-.077 0-.737 1-1.467 2.223m146.747.318c0 1.328.043 1.871.095 1.207.053-.664.053-1.75 0-2.414-.052-.664-.095-.121-.095 1.207m-160.385.445c-1.232 2.088-1.893 3.367-1.739 3.367.063 0 .485-.658.937-1.461.452-.804 1.1-1.948 1.44-2.542s.564-1.08.497-1.08c-.068 0-.578.772-1.135 1.716m222.863.689c.587 1.183 1.108 2.109 1.158 2.059.113-.113-1.933-4.21-2.102-4.21-.067 0 .358.968.944 2.151m-212.32 3.885c-1.743 3.103-2.011 3.621-1.87 3.621.062 0 .506-.714.987-1.588.48-.874 1.245-2.246 1.699-3.05.454-.803.77-1.461.701-1.461-.068 0-.751 1.115-1.517 2.478m-13.427.635c-.165.315-.758 1.43-1.32 2.478-.561 1.048-.904 1.792-.761 1.652.36-.351 2.69-4.701 2.518-4.701-.076 0-.273.257-.437.571m228.616 1.207c.493.979.953 1.779 1.023 1.779s-.276-.8-.769-1.779c-.493-.978-.953-1.778-1.023-1.778s.276.8.769 1.778m-10.801.349c0 .275 1.01 2.193 1.154 2.193.07 0-.118-.486-.417-1.08-.589-1.169-.737-1.391-.737-1.113m-54.554 2.066c.001.978.047 1.347.102.82s.054-1.328-.002-1.779-.101-.02-.1.959m-153.012 1.461c-1.988 3.646-6.196 11.88-6.071 11.88.07 0 1.238-2.144 2.595-4.764 1.357-2.621 2.976-5.709 3.599-6.862.622-1.153 1.075-2.097 1.007-2.097-.069 0-.577.83-1.13 1.843m-14.004 2.054c-.752 1.421-1.25 2.469-1.107 2.33.364-.356 2.682-4.706 2.568-4.82-.052-.051-.709 1.069-1.461 2.49m234.794-1.673c.312.524 1.414 2.427 2.448 4.23 1.034 1.802 2.091 3.574 2.349 3.939 1.848 2.615 4.619 10.115 7.662 20.738.721 2.516 1.421 4.746 1.556 4.956.19.294.209.267.086-.12-.088-.276-.732-2.563-1.43-5.083-2.961-10.681-5.316-16.951-7.971-21.227-.738-1.188-2.16-3.561-3.16-5.273s-1.883-3.113-1.963-3.113c-.079 0 .111.429.423.953m-68.023 3.24c.001 1.398.044 1.937.095 1.199.052-.739.051-1.882-.001-2.541-.052-.66-.094-.055-.094 1.342m-169.739 4.08c-.652 1.196-1.14 2.22-1.084 2.276s.649-.923 1.317-2.174c.669-1.252 1.157-2.276 1.084-2.276-.072 0-.665.979-1.317 2.174m169.451-.395c0 .489.053.689.117.445.063-.245.063-.645 0-.89-.064-.244-.117-.044-.117.445m-.224 3.812c0 1.188.044 1.674.097 1.08.054-.594.054-1.566 0-2.16-.053-.594-.097-.108-.097 1.08m-172.338 2.936c-.447.906-.807 1.732-.801 1.834.007.102.415-.598.906-1.556.492-.957.852-1.783.801-1.834s-.459.649-.906 1.556m172.071 1.638c0 .769.048 1.084.106.699.058-.384.058-1.013 0-1.397-.058-.385-.106-.07-.106.698m-160.762 1.411c-.517 1.046-.935 1.985-.928 2.088.007.102.472-.712 1.033-1.809.561-1.098.979-2.037.928-2.088-.05-.051-.515.764-1.033 1.809m160.501 1.385c0 .629.05.886.11.572.061-.315.061-.829 0-1.144-.06-.314-.11-.057-.11.572m-174.75 2.447c-.512 1.352-.888 2.501-.836 2.553s.513-1.012 1.024-2.365c.511-1.352.887-2.501.836-2.553-.052-.051-.513 1.013-1.024 2.365m12.439.241c-.373.932-.635 1.737-.582 1.79s.399-.669.77-1.602c.37-.934.632-1.74.582-1.79-.051-.05-.397.671-.77 1.602m-1.894 4.84c-.303.792-.508 1.483-.456 1.535.053.053.344-.552.647-1.344s.508-1.483.455-1.535c-.052-.052-.343.553-.646 1.344m-13.479 2.531c-.44 1.215-.739 2.269-.665 2.343s.135.076.135.005c0-.072.344-1.082.763-2.244.42-1.163.719-2.159.665-2.213-.055-.054-.459.895-.898 2.109m176.414-.656c0 .629.049.886.11.571.06-.314.06-.829 0-1.143-.061-.315-.11-.057-.11.572m71.126-.254c0 .209.211.952.469 1.651s.469 1.099.469.89c0-.21-.211-.953-.469-1.652s-.469-1.099-.469-.889m-235.465 2.058c-.372 1.003-.633 1.866-.58 1.919s.4-.725.771-1.728c.37-1.004.631-1.868.579-1.92s-.398.726-.77 1.729m70.495 2.496c-16.243 5.434-33.7 18.746-42.362 32.305-.811 1.27-2.772 4.275-4.356 6.677-3.269 4.955-3.513 5.392-5.052 9.068-1.625 3.882-3.319 13.776-2.894 16.9.672 4.936 3.483 14.159 6.877 22.567 4.024 9.968 11.809 20.41 19.96 26.773.559.436-1.396-1.624-4.346-4.578-5.842-5.852-8.211-8.796-11.371-14.129-2.829-4.776-6.64-14.587-8.838-22.755-2.449-9.098-2.416-8.695-1.259-15.416 1.33-7.728 2.615-10.993 6.704-17.033 1.165-1.721 2.937-4.449 3.938-6.062 6.128-9.875 19.758-22.637 30.039-28.126 4.065-2.171 15.308-6.704 15.687-6.325.05.05.15.534.223 1.075.349 2.609.669 4.439.761 4.348.127-.128-.62-5.505-.807-5.808-.205-.332-.537-.273-2.904.519m-71.636.556c-.156.449-.24.861-.186.916.055.054.227-.269.384-.718.156-.449.24-.861.186-.915-.055-.055-.227.268-.384.717m238.381.989c0 .209.098.61.219.889.137.32.218.367.218.127 0-.21-.098-.61-.218-.889-.138-.321-.219-.368-.219-.127m-239.526 2.208c-.364 1.093-.653 2.1-.643 2.24.011.139.353-.711.76-1.888.408-1.178.697-2.186.643-2.24-.055-.054-.397.795-.76 1.888m-13.088 2.392c-.448 1.555-.769 2.873-.714 2.929.055.055.467-1.172.916-2.727.448-1.555.769-2.873.714-2.929-.056-.055-.468 1.172-.916 2.727m89.709-.28c-.01.209.141.953.336 1.652.194.699.361 1.099.371.889s-.141-.953-.336-1.652c-.194-.699-.361-1.099-.371-.889m175.599.762c-.02.454 1.042 4.275 1.589 5.718.212.559.393.881.403.716.01-.166-.109-.624-.265-1.017-.155-.393-.604-1.859-.997-3.257-.393-1.397-.721-2.369-.73-2.16m-254.237 3.25c-6.975 19.498-8.8 38.611-5.343 55.962 1.45 7.281 4.663 15.229 7.053 17.451.305.283-1.025-2.053-1.95-3.426-1.809-2.684-3.435-7.339-4.644-13.288-3.601-17.729-1.978-36.391 4.846-55.729.636-1.803 1.124-3.371 1.084-3.485s-.51 1.017-1.046 2.515m79.416-.581c-.004.279.091.737.211 1.016.278.648.278-.02 0-.889-.164-.511-.205-.536-.211-.127m.719 2.705c0 .319 1.518 4.562 1.777 4.966.272.426.281.422.121-.048-1.572-4.607-1.898-5.452-1.898-4.918m-94.093 3.963c-.507 1.637-.878 3.02-.825 3.073.053.052.516-1.238 1.03-2.868.513-1.629.884-3.012.824-3.072s-.523 1.231-1.029 2.867m258.066-1.713c0 .489.052.689.116.445.064-.245.064-.645 0-.89-.064-.244-.116-.044-.116.445m12.528 1.271c.527 2.309 2.247 8.63 2.327 8.551.138-.139-1.588-6.958-2.069-8.17-.222-.559-.338-.731-.258-.381m-174.372 2.287c.223.825.99 2.556 1.089 2.458.058-.058-.187-.72-.544-1.472s-.602-1.196-.545-.986m162.386 2.414c.001 1.398.043 1.937.095 1.199.051-.739.051-1.882-.002-2.542-.052-.659-.094-.055-.093 1.343m-161.187.508c0 .14.332.883.738 1.652s.739 1.284.739 1.144-.333-.883-.739-1.652-.738-1.283-.738-1.144m-98.822 1.144c0 .489.053.689.117.445.064-.245.064-.645 0-.89-.064-.244-.117-.044-.117.445m260.271 5.083c0 2.026.04 2.855.088 1.842s.048-2.672 0-3.685-.088-.184-.088 1.843m2.868-2.288c.179 1.67.238 1.791.386.787.061-.419-.034-1.082-.212-1.473-.296-.649-.311-.588-.174.686m-162.798-.762c-.026.267 4.207 9.86 4.608 10.442.232.337-.428-1.331-1.467-3.708-1.932-4.415-3.119-6.961-3.141-6.734m163.202 3.812c0 .629.05.886.11.572.061-.315.061-.829 0-1.144-.06-.314-.11-.057-.11.572m-264.957 2.862c-.67 3.653-.924 5.773-.892 7.43.026 1.286.063 1.147.239-.889.114-1.328.455-3.821.757-5.54s.499-3.175.438-3.236c-.061-.062-.305.945-.542 2.235m175.607-.944c-.597 1.252-.513 1.465.111.282.283-.538.47-1.022.415-1.077-.054-.055-.291.303-.526.795m101.505.528c-.014.157.203 1.644.482 3.304.279 1.659.607 3.989.729 5.178.172 1.688.227 1.882.253.889.045-1.753-1.347-10.66-1.464-9.371m-11.632 3.78c.001.979.047 1.348.102.82.055-.527.054-1.327-.002-1.779-.057-.451-.102-.019-.1.959m1.5.635c0 .49.052.69.116.445.064-.244.064-.645 0-.889-.064-.245-.116-.045-.116.444m-159.652 1.525c.285.559.575 1.017.645 1.017s-.106-.458-.391-1.017c-.286-.559-.576-1.016-.646-1.016s.106.457.392 1.016m153.566.636c.002.698.052.954.11.568.059-.386.057-.958-.003-1.271-.061-.312-.108.004-.107.703m-232.758-.572c-.875 1.484-.932 1.611-.486 1.08.516-.615.961-1.398.794-1.398-.066 0-.205.143-.308.318m142.941 1.652c-1.083 1.588-9.673 12.899-11.346 14.941-.239.291-.018.093.491-.441.509-.533 2.001-2.37 3.317-4.082 1.315-1.712 3.139-4.084 4.053-5.272 2.04-2.651 4.629-6.354 4.445-6.354-.075 0-.507.544-.96 1.208m96.167-.191c0 .629.05.886.11.572.061-.315.061-.829 0-1.144-.06-.314-.11-.057-.11.572m-158.773.508c.217.42.452.763.521.763.07 0-.05-.343-.267-.763-.217-.419-.451-.762-.521-.762s.05.343.267.762m-82.368 1.334c-.875 1.485-.932 1.611-.486 1.081.516-.615.961-1.398.794-1.398-.066 0-.205.143-.308.317m241.39.826c.003.559.055.758.116.442s.058-.773-.005-1.016c-.064-.243-.114.015-.111.574m-156.862 1.398c.299.419.6.762.67.762s-.117-.343-.416-.762c-.298-.419-.6-.762-.67-.762s.118.343.416.762m157.131 2.16c.001.839.049 1.151.105.694.057-.456.056-1.142-.002-1.524s-.104-.008-.103.83m-155.944-.377c.248.421.718 1.079 1.043 1.461s.169.038-.347-.766c-.978-1.523-1.484-2.028-.696-.695m-88.353.504c-.285.559-.462 1.017-.392 1.017s.361-.458.646-1.017.461-1.016.391-1.016c-.069 0-.36.457-.645 1.016m244.549 3.05c0 .769.047 1.083.105.699.059-.385.059-1.014 0-1.398-.058-.384-.105-.07-.105.699m10.92-.254c0 .629.05.886.11.571.061-.314.061-.829 0-1.143-.06-.315-.11-.057-.11.572m-164.745 0c.299.419.6.762.67.762s-.117-.343-.416-.762c-.298-.42-.6-.763-.67-.763s.117.343.416.763m151.555 3.049c0 1.468.042 2.068.094 1.334.051-.733.051-1.934 0-2.668-.052-.734-.094-.133-.094 1.334m-150.173-1.187c.391.513.763.933.826.933.176 0-.924-1.486-1.249-1.688-.159-.098.031.242.423.755m2.71 3.22c1.565 1.838 11.226 11.429 14.335 14.232.543.489-1.466-1.51-4.463-4.441-6.897-6.744-7.857-7.711-9.979-10.045l-1.732-1.906zm160.683 3.177c0 1.817.041 2.527.09 1.578.049-.95.048-2.436-.001-3.304-.05-.868-.09-.091-.089 1.726m-10.945-1.144c0 .909.046 1.28.102.826.057-.454.057-1.197 0-1.652-.056-.454-.102-.082-.102.826m-2.55.636c.002.698.051.954.109.568.059-.386.057-.958-.003-1.271-.06-.312-.108.004-.106.703m-107.583.317-.876.953.953-.875c.887-.816 1.07-1.031.876-1.031-.043 0-.472.429-.953.953m-2.413 2.62c-.552.567-2.859 2.647-5.126 4.621-3.444 3-4.071 3.651-3.813 3.963.325.391 7.984 5.566 9.078 6.134 1.122.582.474.124-4.257-3.012-2.55-1.691-4.637-3.184-4.637-3.318 0-.133 1.801-1.837 4.002-3.786 3.779-3.346 6.169-5.633 5.885-5.633-.07 0-.579.464-1.132 1.031m109.742.112c.002.699.051.955.109.568.059-.386.057-.958-.003-1.27-.06-.313-.108.003-.106.702m-8.524.344c-.23.39-.607 1.273-.836 1.962-2.276 6.836-14.586 18.809-24.391 23.721-3.005 1.506-3.032 1.725-.036.295 9.168-4.375 21.674-16.369 24.462-23.46.344-.875.805-1.914 1.024-2.308.524-.939.321-1.13-.223-.21m-257.818.546c0 .489.052.689.116.444.064-.244.064-.644 0-.889s-.116-.045-.116.445m268.894.889c.001.978.047 1.348.102.82.055-.527.054-1.327-.002-1.779-.056-.451-.101-.019-.1.959m-2.815 1.017c.003.559.055.757.116.441.06-.316.058-.773-.006-1.016-.063-.243-.113.016-.11.575m-246.991 1.524c.001 1.119.046 1.544.099.947.054-.598.053-1.513-.001-2.033-.055-.521-.099-.032-.098 1.086m249.532.763c.003.559.055.758.116.442.061-.317.058-.774-.005-1.017-.064-.243-.114.016-.111.575m10.933.127c0 .629.05.886.11.572.061-.315.061-.829 0-1.144-.06-.314-.11-.057-.11.572m-279.307 1.906c0 .279.092.794.203 1.143.162.503.204.53.204.127 0-.279-.092-.794-.204-1.143-.161-.503-.203-.53-.203-.127m278.65 4.085c-.252 2.317-.746 5.357-1.099 6.756s-.594 2.592-.535 2.651c.412.412 1.753-6.808 2.116-11.396.291-3.684.006-2.505-.482 1.989m-259.816-2.56c.001.838.048 1.151.105.694s.055-1.143-.003-1.525-.104-.008-.102.831m-18.528.89c.079.349.325 1.72.547 3.046.367 2.195.635 3.189.612 2.269-.021-.834-.94-5.588-1.114-5.761-.104-.104-.124.096-.045.446m135.476 1.016c.688.698 1.308 1.27 1.378 1.27s-.436-.572-1.124-1.27c-.689-.699-1.309-1.271-1.379-1.271s.436.572 1.125 1.271m4.175 3.442c1.863 1.725 2.984 2.644 4.529 3.713 1.776 1.229 1.222.637-.89-.95-1.083-.814-2.484-1.947-3.113-2.517-.629-.569-1.372-1.199-1.652-1.398-.279-.199.227.319 1.126 1.152m123.67-.502c-.094.373-.121.726-.061.786s.185-.196.279-.568c.093-.372.121-.726.061-.786s-.186.196-.279.568m-106.371 1.494c0 .07.343.304.762.521s.762.337.762.267-.343-.304-.762-.521-.762-.337-.762-.267m1.778.992c0 .17 2.345 1.462 2.455 1.353.049-.05-.483-.401-1.183-.782-.699-.381-1.272-.638-1.272-.571m5.083 2.409c.21.129.667.312 1.017.405.441.118.519.098.254-.065-.21-.13-.667-.312-1.017-.406-.441-.118-.519-.098-.254.066m-18.297.157c0 .069 1.029.819 2.287 1.664 1.258.846 2.287 1.481 2.287 1.411s-1.029-.819-2.287-1.665c-1.258-.845-2.287-1.48-2.287-1.41m22.871 1.537c.35.2.75.364.89.364s-.032-.164-.381-.364c-.35-.199-.75-.363-.89-.363s.032.164.381.363m92.291.52c-.426.934-.345 1.133.116.284.215-.397.343-.769.285-.827s-.239.186-.401.543m-257.97.653c-.031.363 1.058 4.436 1.235 4.618.245.253-.424-2.701-.879-3.885-.189-.489-.349-.819-.356-.733m147.636.603c0 .125 2.312 1.711 4.066 2.789.629.387.972.536.763.33-.468-.458-4.829-3.275-4.829-3.119m23.789.5c.435.201 1.121.43 1.525.51.628.124.606.094-.155-.204-1.373-.538-2.342-.755-1.37-.306m85.281 1.04c-.766 1.576-.681 1.797.108.281.353-.678.598-1.276.545-1.329-.054-.053-.347.419-.653 1.048m15.601 1.962c-1.266 3.753-1.254 3.711-.938 3.219.353-.551 2.129-5.845 2.003-5.971-.056-.056-.535 1.182-1.065 2.752m-93.301-.556c2.927.961 5.355 1.713 5.395 1.673.262-.262-9.776-3.548-10.525-3.446-.105.015 2.203.812 5.13 1.773m-159.451-.864c0 .698 5.374 8.237 8.392 11.774 5.546 6.499 14.042 14.471 19.47 18.27 1.74 1.218.87.416-1.687-1.553-9.812-7.558-20.08-18.632-25.267-27.251-.499-.83-.908-1.388-.908-1.24m235.883 2.247c-.304.626-.499 1.138-.434 1.138.172 0 1.199-2.064 1.084-2.179-.053-.053-.346.415-.65 1.041m-102.465-.825c0 .218 5.3 3.587 8.386 5.331 7.586 4.287 22.41 11.173 25.286 11.747.419.083-.267-.235-1.525-.708-9.164-3.443-23.353-10.678-31.448-16.036-.385-.254-.699-.404-.699-.334m-135.705 1.836c.432.629.844 1.144.914 1.144.069 0-.227-.515-.66-1.144s-.844-1.144-.914-1.144.227.515.66 1.144m240.568 3.324c-3.462 6.802-4.82 8.543-10.959 14.048-4.052 3.633-5.671 4.781-10.867 7.709-1.503.846-2.732 1.583-2.732 1.638 0 .39 8.372-4.512 10.038-5.878 4.928-4.038 9.432-8.585 11.527-11.637.933-1.36 5.226-9.562 5.081-9.707-.051-.051-.991 1.671-2.088 3.827m-71.191-3.197c.28.12.68.219.889.219.241 0 .194-.081-.127-.219-.279-.12-.679-.218-.889-.218-.24 0-.193.08.127.218m38.628.527c-.559.269-.731.417-.381.33.719-.179 2.04-.841 1.651-.828-.139.005-.711.229-1.27.498m-222.904.49c.688 2.541 5.67 11.468 6.372 11.415.147-.011.124-.077-.05-.148-.175-.07-.318-.253-.318-.406 0-.315-1.804-3.065-2.096-3.195-.105-.047-.2-.275-.211-.508s-.353-.939-.76-1.568c-.407-.628-.956-1.601-1.221-2.16-1.408-2.975-1.809-3.775-1.716-3.43m220.617.254c-.321.137-.368.218-.127.218.209 0 .609-.098.889-.218.32-.138.367-.219.127-.219-.21 0-.61.099-.889.219m-2.161.487c-.349.105-1.718.344-3.042.532-1.323.187-2.27.387-2.103.442.166.056 1.421-.079 2.787-.299 2.597-.418 4.406-.864 3.502-.864-.279 0-.794.085-1.144.189m32.386.7c-.391.513-.582.853-.423.755.325-.202 1.425-1.688 1.249-1.688-.063 0-.435.42-.826.933m-57.735-.504c.245.064.645.064.889 0 .245-.064.045-.116-.444-.116s-.69.052-.445.116m4.193.513c.315.06.829.06 1.144 0 .314-.061.057-.11-.572-.11s-.886.049-.572.11m3.312.262c.739.052 1.882.051 2.542-.001.659-.052.055-.094-1.343-.094-1.398.001-1.937.044-1.199.095m4.693.249c.385.058 1.014.058 1.398 0 .384-.059.07-.106-.699-.106s-1.083.047-.699.106m4.328.005c.668.052 1.697.052 2.287-.002.59-.053.043-.096-1.214-.095-1.258.001-1.741.044-1.073.097m57.289 2.491c-.657 1.322-1.139 2.404-1.071 2.404.169 0 2.469-4.605 2.356-4.718-.05-.05-.628.992-1.285 2.314m-17.862-.709c-1.725 2.147-5.786 6.181-7.287 7.239-.804.567-1.461 1.078-1.461 1.136 0 .203 1.648-.947 3.481-2.43 1.34-1.084 6.729-7.152 6.352-7.152-.064 0-.552.543-1.085 1.207m-229.079 1.668c0 .044.372.415.826.826l.826.746-.746-.826c-.696-.77-.906-.942-.906-.746m2.542 2.843c.474.489.919.889.989.889s-.261-.4-.735-.889-.92-.89-.989-.89c-.07 0 .26.401.735.89m241.984.572c-.613.875-1.124 1.842-.973 1.842.063 0 .466-.572.896-1.271.837-1.36.886-1.726.077-.571m-238.554 3.367c.689.699 1.309 1.271 1.379 1.271s-.436-.572-1.125-1.271c-.688-.699-1.308-1.271-1.378-1.271s.436.572 1.124 1.271m-19.107.254c3.629 4.697 5.344 6.861 5.436 6.861.302 0-3.763-5.378-5.018-6.639-.928-.933-.996-.969-.418-.222m255.16.191c-.414.524-1.022 1.353-1.351 1.842-.925 1.374.199.172 1.365-1.461 1.101-1.542 1.093-1.78-.014-.381m-23.664.601c-.866.554-1.146.927-.381.506.583-.32 1.496-1.027 1.334-1.032-.07-.002-.499.235-.953.526m-210.229.838c1.867 2.087 11.528 10.267 14.232 12.049l.889.586-.881-.715c-.485-.394-2.544-2.042-4.575-3.663s-5.179-4.301-6.996-5.957-3.018-2.691-2.669-2.3m157.434.403c.279.12.679.218.889.218.24 0 .193-.08-.127-.218-.279-.12-.68-.218-.889-.218-.241 0-.194.08.127.218m49.873.4c-.95.515-.893.73.063.235.419-.216.763-.448.763-.514 0-.164-.028-.155-.826.279m-3.749 1.76c-.908.476-1.537.865-1.397.865.139 0 .997-.389 1.905-.865.909-.476 1.538-.865 1.398-.865s-.997.389-1.906.865m26.282 1.334c-.534.664-.707.979-.384.699.606-.525 1.67-1.906 1.469-1.906-.063 0-.551.543-1.085 1.207m-55.189.239c.245.064.645.064.889 0 .245-.064.045-.116-.444-.116-.49 0-.69.052-.445.116m5.337.762c.244.064.645.064.889 0 .245-.064.045-.116-.445-.116-.489 0-.689.052-.444.116m3.812.509c.244.064.644.064.889 0s.045-.117-.445-.117c-.489 0-.689.053-.444.117m41.737 3.192-3.3 3.367 3.367-3.3c3.128-3.066 3.482-3.435 3.3-3.435-.037 0-1.552 1.516-3.367 3.368m-38.942-2.928c.524.055 1.382.055 1.906 0s.095-.1-.953-.1-1.477.045-.953.1m5.591-.003c.384.058 1.013.058 1.398 0 .384-.059.07-.106-.699-.106s-1.083.047-.699.106m-205.4 1.978c.9.908 1.694 1.652 1.764 1.652s-.61-.744-1.51-1.652c-.901-.909-1.695-1.652-1.764-1.652-.07 0 .609.743 1.51 1.652m2.107 1.819c.218.355 2.721 2.472 2.721 2.301 0-.066-.653-.677-1.451-1.358-.798-.68-1.369-1.105-1.27-.943m212.569 2.645c-.524.277-.953.56-.953.63 0 .069.457-.108 1.016-.393s1.017-.573 1.017-.64c0-.167-.002-.166-1.08.403m-208.831.46c.489.429 1.404 1.134 2.033 1.568l1.143.789-.842-.751c-.464-.412-1.379-1.118-2.033-1.567l-1.191-.817zm228.58-.025c-.424.38-1.167 1.013-1.651 1.407-.73.593-.676.576.314-.098 1.062-.723 2.502-2.027 2.216-2.008-.059.004-.454.319-.879.699m-205.792.331c.316.381 1.862 1.354 1.862 1.171 0-.059-.486-.428-1.08-.82s-.946-.55-.782-.351m4.022.365c.28.228.737.526 1.017.664l.508.249-.508-.414c-.28-.227-.737-.526-1.017-.663l-.508-.25zm177.7 1.362c-.944.531-1.802 1.06-1.906 1.177-.238.266 3.28-1.616 3.609-1.931.411-.394.074-.244-1.703.754m19.309 1.407c-2.139 1.457-2.711 1.93-1.71 1.416 1.183-.608 4.284-2.905 3.748-2.776-.035.008-.952.62-2.038 1.36m-197.644-1.008c0 .07.343.305.762.522.42.217.763.337.763.267s-.343-.305-.763-.521c-.419-.217-.762-.337-.762-.268m-21.855.751c0 .07.514.482 1.143.914.629.433 1.144.73 1.144.66s-.515-.481-1.144-.914-1.143-.729-1.143-.66m195.426 1.423c-1.328.684-2.327 1.25-2.219 1.257.27.018 4.76-2.249 4.76-2.404 0-.172.131-.232-2.541 1.147m-170.903-.638c.568.472 2.178 1.342 1.779.961-.14-.133-.711-.499-1.27-.813s-.788-.381-.509-.148m4.193.497c0 .07.344.305.763.522s.762.337.762.267-.343-.305-.762-.521c-.419-.217-.763-.337-.763-.268m9.403-.021c0 .07.343.371.763.67.419.298.762.486.762.416s-.343-.372-.762-.67c-.42-.299-.763-.486-.763-.416m-34.815 1.021c0 .062.714.617 1.588 1.235 1.882 1.329 2.223 1.538 2.223 1.359 0-.074-.857-.713-1.905-1.42-1.049-.708-1.906-1.236-1.906-1.174m23.888.029c0 .171 2.572 1.452 2.686 1.338.052-.052-.531-.401-1.296-.776-.765-.376-1.39-.628-1.39-.562m160.483 2.411c-5.91 2.422-9.408 3.631-13.723 4.742-1.817.468-2.79.781-2.161.694 1.957-.269 7.224-1.804 10.87-3.167 3.444-1.288 9.983-3.973 10.198-4.187.282-.283-.696.079-5.184 1.918m26.175-.881c-.978.623-1.69 1.135-1.582 1.137.235.003 3.488-2.03 3.488-2.18 0-.169-.045-.144-1.906 1.043m-172.189-.026c1.239 1.502 16.159 8.763 19.838 9.655.901.218.376-.02-4.193-1.903-3.784-1.558-11.835-5.448-13.076-6.316-1.595-1.117-2.913-1.853-2.569-1.436m164.311 4.227c-3.215 1.666-5.742 3.031-5.616 3.033.291.006 11.124-5.536 11.448-5.856.408-.403.192-.298-5.832 2.823m-171.411-2.172c.35.2.75.363.89.363s-.032-.163-.381-.363c-.35-.2-.75-.363-.89-.363-.139 0 .032.163.381.363m-25.54.265c.602.487 3.448 1.964 3.561 1.848.043-.044-.855-.57-1.995-1.169-1.141-.599-1.845-.905-1.566-.679m5.718 2.788c0 .144 3.469 1.904 3.742 1.898.236-.006-2.354-1.468-3.17-1.79-.314-.124-.572-.173-.572-.108m6.099 2.733c0 .173 5.112 2.275 5.234 2.152.056-.055-.956-.534-2.248-1.064-3.102-1.271-2.986-1.228-2.986-1.088m142.186.44c-.32.138-.367.218-.127.218.21 0 .61-.098.889-.218.321-.138.368-.218.127-.218-.209 0-.609.098-.889.218m32.336.818c-1.085.433-1.93.829-1.879.88.11.11 4.232-1.441 4.232-1.593 0-.192-.366-.081-2.353.713m-131.955 1.215c.28.12.68.218.89.218.24 0 .193-.08-.127-.218-.28-.12-.68-.218-.89-.218-.24 0-.193.08.127.218m125.214 1.576c-1.297.568-2.313 1.079-2.257 1.135.101.101 4.707-1.828 4.954-2.074.305-.305-.491-.028-2.697.939m-158.886-.451c0 .109 2.091.924 3.304 1.288 1.265.381.302-.135-1.415-.758-1.916-.695-1.889-.688-1.889-.53m39.009.146c1.075.273 1.998.273 1.143 0-.349-.112-.921-.202-1.27-.199-.571.004-.558.024.127.199m5.781.937c.245.064.645.064.89 0 .244-.064.044-.116-.445-.116s-.689.052-.445.116m1.909.259c.316.061.774.058 1.017-.005.243-.064-.016-.114-.575-.111s-.758.055-.442.116m2.793.254c.314.06.829.06 1.143 0 .315-.061.058-.11-.571-.11s-.887.049-.572.11m3.049.258c.455.057 1.198.057 1.652 0 .454-.056.083-.102-.826-.102-.908 0-1.28.046-.826.102m53.854.221c-.956.19-2.9.457-4.321.592l-2.582.246 2.668-.119c2.331-.105 8.289-1.064 6.607-1.064-.349 0-1.417.155-2.372.345m-49.022.283c.316.061.773.059 1.016-.005.243-.063-.015-.113-.575-.11-.559.003-.757.055-.441.115m93.707 1.057c-1.817.653-3.875 1.432-4.574 1.731-.699.298-2.243.724-3.431.945-1.188.222-3.154.742-4.37 1.157-1.215.414-3.216.879-4.447 1.032-3.825.479-12.392 1.899-11.956 1.983.227.044 2.107-.205 4.177-.553 2.069-.349 4.948-.757 6.397-.908 2.869-.299 5.617-.893 6.682-1.446.372-.193 1.85-.586 3.285-.874 1.435-.287 3.246-.791 4.025-1.119.779-.327 2.875-1.132 4.657-1.788s3.24-1.239 3.24-1.295c0-.175-.296-.083-3.685 1.135m-90.915-.798c.454.056 1.198.056 1.652 0 .454-.057.083-.103-.826-.103-.908 0-1.28.046-.826.103m5.596.254c.456.057 1.143.056 1.524-.002.382-.058.009-.105-.83-.103-.839.001-1.151.049-.694.105m-57.502.386c.28.165 1.423.546 2.542.847 1.118.301 2.261.622 2.541.713.279.091.051-.062-.508-.34-.56-.278-1.22-.509-1.468-.513-.248-.003-1.102-.235-1.897-.515-1.641-.576-1.941-.624-1.21-.192m61.059-.132c.457.057 1.143.056 1.525-.002s.008-.105-.83-.103c-.839.001-1.151.049-.695.105m27.315-.002c.384.058 1.013.058 1.398 0 .384-.058.069-.106-.699-.106-.769 0-1.084.048-.699.106m-22.99.26c.738.051 1.882.051 2.541-.001s.055-.095-1.343-.094-1.937.043-1.198.095m15.632.001c1.089.048 2.805.048 3.812 0s.115-.087-1.982-.087c-2.096 0-2.92.04-1.83.087m-6.238.251c.594.054 1.566.054 2.16 0 .594-.053.108-.097-1.08-.097s-1.674.044-1.08.097m-65.647 2.375c.555.353 4.985 1.579 5.141 1.423.055-.056-.445-.243-1.113-.417-.668-.173-1.786-.492-2.485-.707-1.998-.617-2.062-.629-1.543-.299m10.469 3.027c.798.322 6.304 1.531 6.86 1.507.263-.012-.208-.182-1.047-.378-6.31-1.474-6.994-1.607-5.813-1.129m17.503 3.058c.699.113 2.014.217 2.923.232.908.015 2.909.198 4.447.408 1.537.21 4.739.428 7.116.485l4.32.104-3.939-.21c-2.167-.115-5.426-.387-7.243-.604-3.601-.43-9.83-.769-7.624-.415m63.66.273c-1.468.263-3.526.579-4.575.702-1.591.187-1.709.229-.714.257 1.019.029 8.231-1.057 8.973-1.351.617-.244-1.235-.047-3.684.392m-44.152 1.175c.386.058.958.057 1.271-.004.312-.06-.004-.108-.703-.106-.698.002-.954.051-.568.11m35.194.001c.454.057 1.197.057 1.651 0 .455-.056.083-.102-.826-.102-.908 0-1.28.046-.825.102m-31.636.253c.386.058.958.057 1.271-.004.312-.06-.004-.108-.703-.106s-.954.052-.568.11m28.335-.003c.316.061.773.059 1.016-.005.243-.063-.015-.113-.574-.11-.56.002-.758.055-.442.115m-22.494.26c.525.055 1.382.055 1.906 0s.096-.1-.953-.1c-1.048 0-1.477.045-.953.1m18.044-.003c.384.058 1.013.058 1.397 0 .385-.058.07-.106-.699-.106-.768 0-1.083.048-.698.106"
      fill="#545a55" />
  </g>
</svg>